<svg id="Capa_1" data-name="Capa 1" xmlns="http://www.w3.org/2000/svg" viewBox="0 0 33.6 33.6"><defs><style>.cls-1{fill:#23aab8;opacity:0.9;}</style></defs><title>divider-post</title><path class="cls-1" d="M21.33,24.8C20.6,22.88,19.86,21,19.15,19c-.39-1.08-.34-1.21.71-1.71s1.94-.89,2.93-1.27c3.06-1.2,6.13-2.37,9.19-3.55.34-.13.69-.27,1-.42A.78.78,0,0,0,33.49,11c-.28-.77-.58-1.53-.89-2.29a.79.79,0,0,0-1.11-.46c-.39.14-.77.27-1.15.43-3.7,1.47-7.39,3-11.09,4.42-2,.81-2.05.79-2.85-1.32L12.78,2.22c-.13-.34-.27-.69-.41-1A.84.84,0,0,0,11.2.62c-.73.26-1.46.54-2.18.83A.83.83,0,0,0,8.5,2.64c.12.35.24.7.37,1l3.66,9.68c.09.23.18.45.26.69.43,1.22.37,1.39-.79,1.85L2.18,19.84c-.5.2-1,.37-1.49.6-.68.32-.77.54-.55,1.27s.42,1.16.64,1.73a2,2,0,0,0,3.13.37,9.08,9.08,0,0,1,2.4-1.23c2.32-.94,4.66-1.82,7-2.72,1.35-.51,1.5-.45,2,.87,1.33,3.49,2.64,7,4,10.48.11.27.2.54.31.8.48,1.16.63,1.24,1.85.8.51-.18,1-.36,1.49-.57.81-.37.93-.6.64-1.45-.35-1-.77-2.07-1.16-3.11s-.72-1.92-1.09-2.88Z"/></svg>
