<svg id="Capa_1" data-name="Capa 1" xmlns="http://www.w3.org/2000/svg" viewBox="0 0 34.29 33.24"><defs><style>.cls-1{fill:#fdc300;opacity:0.7;}</style></defs><title>divider</title><path class="cls-1" d="M21.68,24.58c-.72-1.92-1.46-3.84-2.17-5.76-.39-1.08-.34-1.21.71-1.71s1.94-.89,2.93-1.27c3.06-1.2,6.12-2.37,9.19-3.55q.51-.19,1-.42a.78.78,0,0,0,.49-1.09c-.29-.77-.58-1.54-.89-2.29A.79.79,0,0,0,31.85,8c-.39.14-.78.27-1.16.42-3.69,1.48-7.38,3-11.08,4.43-2.05.81-2.06.79-2.86-1.32Q15,6.77,13.14,2c-.13-.35-.27-.69-.41-1A.85.85,0,0,0,11.56.39l-2.19.83a.85.85,0,0,0-.51,1.2c.12.35.24.7.37,1l3.66,9.67c.09.23.18.46.26.69.43,1.22.36,1.39-.8,1.86L2.53,19.62c-.49.2-1,.37-1.48.59-.68.33-.78.55-.55,1.28s.42,1.15.63,1.73a2,2,0,0,0,3.14.36,9.2,9.2,0,0,1,2.4-1.22c2.32-.94,4.66-1.83,7-2.72,1.34-.51,1.5-.45,2,.87,1.34,3.49,2.65,7,4,10.48.1.26.2.54.31.8.47,1.16.63,1.23,1.85.8.5-.18,1-.36,1.49-.58.81-.36.92-.59.64-1.44-.36-1.05-.77-2.08-1.16-3.11l-1.09-2.88Z"/></svg>