<svg id="Capa_1" data-name="Capa 1" xmlns="http://www.w3.org/2000/svg" viewBox="0 0 227.37 49.65"><defs><style>.cls-1{fill:#171f23;}</style></defs><title>divider</title><path class="cls-1" d="M129.43,45.71c.13-1.14,1.22-1.62,1.87-2.56-1.46-1.48-2.68-3.16-4.47-4.1a18.83,18.83,0,0,0-1.48-1.93c-3.24-3.28-6.51-6.53-9.77-9.79-.34-.34-.72-.64-1.16-1a5.62,5.62,0,0,0-.61,2.58,10,10,0,0,1-.14,1.35c-.06.24-.37.41-.57.61-.16-.23-.43-.45-.45-.69a20.4,20.4,0,0,1,0-2.11,7.76,7.76,0,0,0-.95.63q-2.46,2.34-4.89,4.69Q99.16,40.8,91.54,48.23c-.34.33-.74.62-1.07.91A3.72,3.72,0,0,1,90,48.9c-2-1.64-2.07-1.89-.2-3.71l19.07-18.51c.68-.66,1.44-1.24,2.11-1.91s.76-1,0-1.81c-.33-.36-.69-.71-1-1.06L92.12,4.06c-.23-.22-.46-.44-.67-.67-.72-.78-.72-.91,0-1.68C92.85.14,93,.13,94.5,1.63L113,20.14c1.32,1.32,1.32,1.31,2.66,0L134.93,1.45c.35-.34.74-.64,1-.9.22,0,.33,0,.39.1,2.17,1.78,2.2,2,.22,3.93q-9.23,9-18.48,18c-.41.4-.78.85-1.14,1.25.58.94,10.94,11,11.81,11.46.89-1.42,1.82-2.85,2.68-4.32a2.65,2.65,0,0,0,.21-1.17c.05-.74,0-.74.9-1.46.11.24.34.49.3.68a24.17,24.17,0,0,1-.89,3,28.91,28.91,0,0,1-1.38,2.79c-.95,1.8-.95,1.8.43,3.19.7.7,1.42,1.39,2.1,2.11a2.09,2.09,0,0,0,2.06.86,2.08,2.08,0,0,0,1.41,2.41c1,.46,1,1.43,1.43,2.14.3.51-1.41,2.21-2,2a2.34,2.34,0,0,1-.87-.61c-.75-.72-1.46-1.48-2.22-2.19s-.91-.65-1.7,0c-.44.38-.94.68-1.41,1Z"/><path class="cls-1" d="M152,23.76c1.11-.11,1.94-.25,2.76-.25,6.25,0,12.49,0,18.74.09,1.51,0,3.32,0,3.25,2.21-.07,2-1.75,2.34-3.31,2.36-6.41.07-12.82.13-19.23,0a3.84,3.84,0,0,1-2.68-1.65C151.13,26,151.76,24.76,152,23.76Z"/><path class="cls-1" d="M203.13,23.91a27.81,27.81,0,0,1,3.23-.43c5.87,0,11.75,0,17.63.07.5,0,1.16-.08,1.46.19a5.58,5.58,0,0,1,1.91,2.42c.11.49-1.1,1.73-1.84,1.85a37.59,37.59,0,0,1-6,.23c-4.87,0-9.74,0-14.6-.22-.88,0-1.9-1.1-2.46-2C202.19,25.66,202.88,24.64,203.13,23.91Z"/><path class="cls-1" d="M74.64,27.66A20.61,20.61,0,0,1,72,28q-8.53,0-17.08,0A6.66,6.66,0,0,1,52,27.4a2.52,2.52,0,0,1-1.2-1.91c0-.63.77-1.33,1.35-1.83a2.32,2.32,0,0,1,1.44-.31c6.36,0,12.72,0,19.08.06a4.74,4.74,0,0,1,2.36.66C76.23,24.81,76.11,26.7,74.64,27.66Z"/><path class="cls-1" d="M25.73,24.62c-.63,1.18-.92,2.26-1.62,2.88a4,4,0,0,1-2.41.43c-6.19,0-12.39.07-18.58-.1-1.07,0-2.8-.89-3-1.69-.52-1.88,1.07-2.68,2.73-2.69q10-.06,20.08.07C23.65,23.53,24.39,24.08,25.73,24.62Z"/></svg>