<svg id="Capa_1" data-name="Capa 1" xmlns="http://www.w3.org/2000/svg" viewBox="0 0 107.67 23.51"><defs><style>.cls-1{fill:#171f23;}</style></defs><title>divider</title><path class="cls-1" d="M43.73,19.43c.55.06.77.57,1.22.88a9.4,9.4,0,0,0,1.94-2.11,9.92,9.92,0,0,0,.91-.71c1.56-1.53,3.1-3.08,4.64-4.63.16-.16.3-.34.49-.54A2.63,2.63,0,0,0,51.7,12a4.34,4.34,0,0,1-.63-.07c-.12,0-.2-.18-.29-.27.11-.07.21-.2.33-.21.29,0,.59,0,1,0a2.89,2.89,0,0,0-.3-.45c-.73-.78-1.47-1.55-2.22-2.32q-3.51-3.61-7-7.22c-.16-.16-.29-.35-.43-.51.06-.11.08-.18.11-.23.78-1,.9-1,1.76-.09,2.92,3,5.85,6,8.76,9,.32.32.59.68.91,1s.48.36.86,0c.17-.16.33-.33.5-.5l8.45-8.45.32-.31c.37-.34.43-.34.79,0,.75.67.75.74,0,1.45l-8.77,8.77c-.62.62-.62.63,0,1.26L64.69,22c.16.17.31.35.43.5s0,.15-.05.18c-.84,1-.95,1-1.86.11l-8.5-8.76c-.19-.19-.4-.36-.59-.54a73.28,73.28,0,0,0-5.43,5.6c.68.42,1.35.86,2.05,1.26a1.42,1.42,0,0,0,.55.11c.35,0,.35,0,.69.42-.11.06-.23.16-.32.14a11.58,11.58,0,0,1-1.42-.42A12.43,12.43,0,0,1,48.92,20c-.86-.45-.86-.45-1.51.2-.34.33-.66.68-1,1a1,1,0,0,0-.4,1,1,1,0,0,0-1.14.67c-.22.47-.68.47-1,.68s-1-.67-1-.95a1.28,1.28,0,0,1,.29-.41c.34-.36.71-.69,1-1.05s.31-.44,0-.81a8.22,8.22,0,0,1-.49-.67Z"/><path class="cls-1" d="M72,11.25c.53-.05.92-.12,1.31-.12,3,0,5.92,0,8.87,0,.72,0,1.58,0,1.54,1s-.83,1.11-1.56,1.12c-3,0-6.08.06-9.11,0a1.82,1.82,0,0,1-1.27-.78C71.57,12.29,71.87,11.73,72,11.25Z"/><path class="cls-1" d="M96.19,11.32a12.41,12.41,0,0,1,1.53-.2c2.78,0,5.57,0,8.35,0,.24,0,.55,0,.69.09a2.66,2.66,0,0,1,.91,1.15c0,.23-.52.82-.87.87a16.91,16.91,0,0,1-2.85.11c-2.31,0-4.61,0-6.91-.1-.42,0-.9-.52-1.17-.93C95.75,12.15,96.07,11.67,96.19,11.32Z"/><path class="cls-1" d="M35.35,13.1a11.55,11.55,0,0,1-1.25.14q-4.05,0-8.09,0A3.32,3.32,0,0,1,24.63,13a1.2,1.2,0,0,1-.57-.91c0-.3.36-.63.63-.87a1.18,1.18,0,0,1,.69-.14c3,0,6,0,9,0a2.2,2.2,0,0,1,1.12.31A1,1,0,0,1,35.35,13.1Z"/><path class="cls-1" d="M12.18,11.66A4.83,4.83,0,0,1,11.42,13a1.89,1.89,0,0,1-1.14.21c-2.94,0-5.87,0-8.8-.05-.51,0-1.33-.42-1.43-.8-.25-.89.5-1.27,1.29-1.27q4.76,0,9.51,0A4.71,4.71,0,0,1,12.18,11.66Z"/></svg>