<svg id="Capa_1" data-name="Capa 1" xmlns="http://www.w3.org/2000/svg" viewBox="0 0 118.02 24.16"><defs><style>.cls-1{fill:#0f4953;opacity:0.9;}</style></defs><title>divider-post</title><path class="cls-1" d="M117.42,20.09c-.09-.09-.17-.2-.27-.3l-6.86-7.07a1.59,1.59,0,0,1-.13-.13l.13-.14,6.79-6.79c.3-.3.56-.56.55-.94s-.28-.62-.6-.91a.8.8,0,0,0-1.29,0l-.18.18-6.73,6.73a3,3,0,0,1-.25.25c-.12-.12-.23-.25-.34-.38l-.34-.37-6.79-7c-.34-.35-.65-.67-1.09-.65s-.72.38-1,.76a.82.82,0,0,0-.15.28l-.14.29.3.35a2.61,2.61,0,0,0,.27.31l5.45,5.59c.43.45.87.9,1.3,1.36a1.72,1.72,0,0,0-.3.19l-.39.39.35.42a.86.86,0,0,0,.41.3,1.7,1.7,0,0,0,.42.06h.22l-.33.32q-1.51,1.53-3,3a3.43,3.43,0,0,1-.41.32l-.25.18-.14.17a4.54,4.54,0,0,1-1,1.1l-.09.08a1.43,1.43,0,0,0-.88-.5l-.49-.05-.1.83.22.31a3.58,3.58,0,0,0,.29.39l-.39.39-.38.39a1.27,1.27,0,0,0-.34.51c-.17.55.51,1.1.58,1.16a1,1,0,0,0,.59.24.57.57,0,0,0,.31-.09,1,1,0,0,1,.18-.07,1.3,1.3,0,0,0,.8-.67c.13-.28.23-.26.33-.24l.74.16-.15-.75c0-.07,0-.11.17-.29l.54-.53.24-.25.25-.24.34.17.21.12a6.78,6.78,0,0,0,.86.41,8.81,8.81,0,0,0,1.17.35.75.75,0,0,0,.58-.14l.58-.28-.41-.5a1.05,1.05,0,0,0-1-.51h-.15c-.37-.21-.73-.44-1.09-.67.78-.86,2.7-2.84,3.45-3.55l.11.11L111.28,17c1.33,1.38,2.67,2.75,4,4.13.36.37.67.7,1.11.68s.73-.38,1.07-.8a.62.62,0,0,0,.14-.34l.06-.25Z"/><path class="cls-1" d="M56,17.68a.32.32,0,0,1-.08-.12,1.73,1.73,0,0,0-1-.86l0,0V15.49l-1.12.4-.07-.05c-.21-.16-.43-.31-.65-.46l-.3-.21-.1-.06s0-.09.05-.14a1,1,0,0,0-.6-1.3,1.19,1.19,0,0,0-1.11.21c-1-.61-2.9-1.92-3.85-2.59l2.26-3.14,3.4-4.74a2,2,0,0,0,.55-1.55c-.14-.6-.65-.88-1.19-1.19a1,1,0,0,0-.52-.12l-.45,0L50.71,1c-.09.11-.19.23-.28.36L44.5,9.58,36.38,3.93A1.68,1.68,0,0,0,35,3.47a1.69,1.69,0,0,0-1,.94,1.19,1.19,0,0,0,.33,1.8l.24.17,8.17,5.68-.1.12-.34.44L36.34,20.9a2,2,0,0,0-.53,1.52c.14.59.65.87,1.15,1.14a1.12,1.12,0,0,0,.39.13l.54.15.45-.54a3.51,3.51,0,0,0,.29-.36l4.75-6.64c.31-.44.63-.87.94-1.3a1.18,1.18,0,0,0,.62.1,1,1,0,0,0,1-.87h0c1.17.81,2.34,1.62,3.5,2.45a2.67,2.67,0,0,1,.36.32,2.73,2.73,0,0,0,.25.23l.14.14.19.05a4.18,4.18,0,0,1,1.15.71c-.3.8-.21,1,0,1.28l.28.41.83,0,.36-.37.17-.16.22.16.47.32a1.72,1.72,0,0,0,.74.31c.81.1,1.34-.81,1.43-1A1.12,1.12,0,0,0,56,17.68Z"/><path class="cls-1" d="M77.66,18.92c.14-1.45.27-2.9.43-4.34.08-.81.16-.88,1-.87s1.51,0,2.26.11c2.32.2,4.64.42,7,.63l.78.06a.57.57,0,0,0,.66-.55c0-.58.11-1.15.15-1.73a.56.56,0,0,0-.57-.64l-.86-.1c-2.82-.22-5.63-.43-8.44-.66-1.55-.13-1.55-.14-1.4-1.74.23-2.4.47-4.8.7-7.21l.06-.78a.59.59,0,0,0-.56-.73c-.55-.06-1.1-.12-1.65-.16a.6.6,0,0,0-.71.6c0,.26-.06.52-.08.78q-.36,3.64-.71,7.3c0,.17,0,.34,0,.52-.11.91-.21,1-1.09.93L67,9.76c-.38,0-.76-.08-1.13-.09-.53,0-.66.11-.75.64s-.1.87-.14,1.3a1.41,1.41,0,0,0,1.88,1.22,6.43,6.43,0,0,1,1.91,0c1.77.13,3.54.3,5.3.47,1,.09,1.1.18,1,1.18-.25,2.64-.51,5.27-.77,7.91,0,.2,0,.4,0,.6-.07.89,0,1,.92,1.09a10.77,10.77,0,0,0,1.13.1c.63,0,.78-.09.86-.71.1-.78.16-1.57.24-2.35l.21-2.17Z"/><path class="cls-1" d="M16,18c-.52-1.39-1.06-2.78-1.57-4.17-.28-.78-.25-.87.51-1.24s1.4-.63,2.12-.92l6.64-2.56c.25-.09.5-.19.74-.3A.56.56,0,0,0,24.83,8c-.21-.56-.42-1.11-.65-1.66a.57.57,0,0,0-.8-.33l-.84.31c-2.67,1.07-5.33,2.14-8,3.2-1.48.58-1.48.57-2.06-1C11.6,6.25,10.72,4,9.85,1.64c-.09-.25-.19-.5-.29-.74A.61.61,0,0,0,8.71.48c-.53.19-1.05.39-1.58.6A.61.61,0,0,0,6.76,2c.09.25.17.5.27.75l2.64,7c.07.17.13.33.19.5.31.88.26,1-.57,1.34l-7.1,2.85c-.36.15-.73.27-1.08.43s-.56.39-.39.92.3.84.45,1.25a1.44,1.44,0,0,0,2.27.27,6.65,6.65,0,0,1,1.74-.89c1.67-.68,3.37-1.32,5.06-2,1-.38,1.08-.33,1.45.62l2.87,7.58c.07.19.14.39.22.58.34.84.45.89,1.34.58.36-.13.72-.26,1.07-.42.59-.26.67-.43.46-1-.25-.76-.55-1.5-.83-2.25S16.29,18.66,16,18Z"/></svg>