<svg id="Capa_1" data-name="Capa 1" xmlns="http://www.w3.org/2000/svg" viewBox="0 0 227.37 23.67"><defs><style>.cls-1,.cls-3{fill:#0f4953;}.cls-1,.cls-2{opacity:0.6;}</style></defs><title>divider</title><path class="cls-1" d="M125,20.37l-.06-.15A1.93,1.93,0,0,0,124,19l0,0,.24-1.35-1.34.22-.07-.06c-.21-.23-.43-.44-.65-.66l-.3-.3-.09-.09s0-.09.08-.14a1.16,1.16,0,0,0-.41-1.59,1.31,1.31,0,0,0-1.3,0c-1-.9-2.89-2.76-3.82-3.72l3.18-3.09,4.8-4.66A2.22,2.22,0,0,0,125.16,2c0-.7-.55-1.13-1.1-1.58a1.26,1.26,0,0,0-.57-.25L123,0l-.51.44c-.12.1-.26.21-.38.33L113.73,8.9l-8-8a1.91,1.91,0,0,0-1.42-.79,2,2,0,0,0-1.38.85,1.35,1.35,0,0,0,0,2.09,2.83,2.83,0,0,0,.24.25l8.07,8.07-.14.12c-.16.14-.32.28-.47.43L102.21,20a2.16,2.16,0,0,0-.9,1.61,2.17,2.17,0,0,0,1.06,1.52,2.12,2.12,0,0,0,.41.23l.58.27.62-.52a4.23,4.23,0,0,0,.4-.34l6.72-6.55L112.42,15a1.26,1.26,0,0,0,.69.24,1.13,1.13,0,0,0,1.28-.78h0l3.47,3.47a3,3,0,0,1,.34.44l.23.32.13.17.2.11a4.37,4.37,0,0,1,1.17,1c-.5.84-.45,1.12-.3,1.44l.23.52,1,.11.49-.34.22-.15.22.22.46.46a2,2,0,0,0,.78.5c.89.28,1.67-.65,1.82-.83A1.28,1.28,0,0,0,125,20.37Z"/><g class="cls-2"><path class="cls-3" d="M152,10.72c1.11-.1,1.94-.25,2.76-.25,6.25,0,12.49,0,18.74.09,1.51,0,3.32,0,3.25,2.21-.07,2-1.75,2.34-3.31,2.36-6.41.07-12.82.14-19.23,0a3.84,3.84,0,0,1-2.68-1.65C151.13,12.92,151.76,11.72,152,10.72Z"/><path class="cls-3" d="M203.13,10.87a25.63,25.63,0,0,1,3.23-.42c5.87,0,11.75,0,17.63.06.5,0,1.16-.08,1.46.19a5.58,5.58,0,0,1,1.91,2.42c.11.49-1.1,1.73-1.84,1.85a37.59,37.59,0,0,1-6,.23c-4.87,0-9.74,0-14.6-.22-.88,0-1.9-1.1-2.46-2C202.19,12.62,202.88,11.6,203.13,10.87Z"/><path class="cls-3" d="M74.64,14.62a20.61,20.61,0,0,1-2.64.29q-8.53,0-17.08,0A6.66,6.66,0,0,1,52,14.36a2.52,2.52,0,0,1-1.2-1.91c0-.63.77-1.33,1.35-1.83a2.32,2.32,0,0,1,1.44-.31c6.36,0,12.72,0,19.08.06A4.74,4.74,0,0,1,75,11C76.23,11.77,76.11,13.66,74.64,14.62Z"/><path class="cls-3" d="M25.73,11.58c-.63,1.18-.92,2.26-1.62,2.88a4,4,0,0,1-2.41.43c-6.19,0-12.39.07-18.58-.1-1.07,0-2.8-.89-3-1.69-.52-1.88,1.07-2.68,2.73-2.69q10-.06,20.08.07C23.65,10.49,24.39,11,25.73,11.58Z"/></g></svg>
